<svg width="60" height="62" viewBox="0 0 60 62" fill="none" xmlns="http://www.w3.org/2000/svg">
<path d="M37.8897 6.85765L56.9638 26.5254C58.1295 27.7274 58.7815 29.3361 58.7815 31.0105V53.7758C58.7815 56.3 55.7117 57.5441 53.9543 55.7321L34.8802 36.0643C33.7144 34.8623 33.0625 33.2537 33.0625 31.5792V8.81394C33.0625 6.28969 36.1323 5.04559 37.8897 6.85765Z" fill="#2464E7" stroke="white"/>
<path d="M21.3311 6.21116L40.1237 25.5887C41.47 26.9768 42.2229 28.8346 42.2229 30.7683V53.1293C42.2229 55.6535 39.1531 56.8976 37.3957 55.0856L18.3216 35.4178C17.1558 34.2158 16.5039 32.6072 16.5039 30.9327V8.16746C16.5039 5.64321 19.5737 4.39911 21.3311 6.21116Z" fill="#2464E7" stroke="white"/>
<path d="M5.32718 6.85765L24.4013 26.5254C25.567 27.7274 26.219 29.3361 26.219 31.0105V53.7758C26.219 56.3 23.1492 57.5441 21.3918 55.7321L2.31766 36.0643C1.15193 34.8623 0.5 33.2537 0.5 31.5792V8.81394C0.5 6.28969 3.56982 5.04559 5.32718 6.85765Z" fill="#2464E7" stroke="white"/>
</svg>
