<svg width="25" height="25" viewBox="0 0 25 25" fill="none" xmlns="http://www.w3.org/2000/svg">
<path d="M13.1379 2.1875H12.6948C12.1607 2.1875 11.6484 2.39821 11.2708 2.77329C10.8931 3.14836 10.6809 3.65707 10.6809 4.1875V4.3675C10.6805 4.71823 10.5873 5.06269 10.4106 5.36634C10.2338 5.66998 9.97977 5.92214 9.67391 6.0975L9.24092 6.3475C8.93476 6.52304 8.58747 6.61545 8.23395 6.61545C7.88043 6.61545 7.53314 6.52304 7.22698 6.3475L7.07594 6.2675C6.6138 6.00276 6.06478 5.93094 5.54938 6.06781C5.03397 6.20467 4.59432 6.53904 4.32692 6.9975L4.10538 7.3775C3.8388 7.83643 3.76648 8.38166 3.9043 8.8935C4.04212 9.40533 4.37881 9.84195 4.84047 10.1075L4.99151 10.2075C5.2959 10.382 5.54899 10.6326 5.72564 10.9343C5.9023 11.2361 5.99636 11.5785 5.99848 11.9275V12.4375C5.99989 12.7899 5.9075 13.1365 5.73067 13.442C5.55384 13.7476 5.29885 14.0013 4.99151 14.1775L4.84047 14.2675C4.37881 14.533 4.04212 14.9697 3.9043 15.4815C3.76648 15.9933 3.8388 16.5386 4.10538 16.9975L4.32692 17.3775C4.59432 17.836 5.03397 18.1703 5.54938 18.3072C6.06478 18.4441 6.6138 18.3722 7.07594 18.1075L7.22698 18.0275C7.53314 17.852 7.88043 17.7595 8.23395 17.7595C8.58747 17.7595 8.93476 17.852 9.24092 18.0275L9.67391 18.2775C9.97977 18.4529 10.2338 18.705 10.4106 19.0087C10.5873 19.3123 10.6805 19.6568 10.6809 20.0075V20.1875C10.6809 20.7179 10.8931 21.2266 11.2708 21.6017C11.6484 21.9768 12.1607 22.1875 12.6948 22.1875H13.1379C13.672 22.1875 14.1843 21.9768 14.562 21.6017C14.9396 21.2266 15.1518 20.7179 15.1518 20.1875V20.0075C15.1522 19.6568 15.2454 19.3123 15.4222 19.0087C15.5989 18.705 15.8529 18.4529 16.1588 18.2775L16.5918 18.0275C16.8979 17.852 17.2452 17.7595 17.5988 17.7595C17.9523 17.7595 18.2996 17.852 18.6057 18.0275L18.7568 18.1075C19.2189 18.3722 19.7679 18.4441 20.2833 18.3072C20.7987 18.1703 21.2384 17.836 21.5058 17.3775L21.7273 16.9875C21.9939 16.5286 22.0662 15.9833 21.9284 15.4715C21.7906 14.9597 21.4539 14.523 20.9922 14.2575L20.8412 14.1775C20.5339 14.0013 20.2789 13.7476 20.102 13.442C19.9252 13.1365 19.8328 12.7899 19.8342 12.4375V11.9375C19.8328 11.5851 19.9252 11.2385 20.102 10.933C20.2789 10.6274 20.5339 10.3737 20.8412 10.1975L20.9922 10.1075C21.4539 9.84195 21.7906 9.40533 21.9284 8.8935C22.0662 8.38166 21.9939 7.83643 21.7273 7.3775L21.5058 6.9975C21.2384 6.53904 20.7987 6.20467 20.2833 6.06781C19.7679 5.93094 19.2189 6.00276 18.7568 6.2675L18.6057 6.3475C18.2996 6.52304 17.9523 6.61545 17.5988 6.61545C17.2452 6.61545 16.8979 6.52304 16.5918 6.3475L16.1588 6.0975C15.8529 5.92214 15.5989 5.66998 15.4222 5.36634C15.2454 5.06269 15.1522 4.71823 15.1518 4.3675V4.1875C15.1518 3.65707 14.9396 3.14836 14.562 2.77329C14.1843 2.39821 13.672 2.1875 13.1379 2.1875Z" stroke="#222222" stroke-width="2" stroke-linecap="round" stroke-linejoin="round"/>
<path d="M12.9164 15.1875C14.5848 15.1875 15.9373 13.8444 15.9373 12.1875C15.9373 10.5306 14.5848 9.1875 12.9164 9.1875C11.248 9.1875 9.89545 10.5306 9.89545 12.1875C9.89545 13.8444 11.248 15.1875 12.9164 15.1875Z" stroke="#222222" stroke-width="2" stroke-linecap="round" stroke-linejoin="round"/>
</svg>
