<svg width="22" height="22" viewBox="0 0 22 22" fill="none" xmlns="http://www.w3.org/2000/svg">
<path d="M10.525 1.29502C10.5688 1.20648 10.6365 1.13195 10.7205 1.07984C10.8044 1.02773 10.9012 1.00012 11 1.00012C11.0988 1.00012 11.1956 1.02773 11.2795 1.07984C11.3635 1.13195 11.4312 1.20648 11.475 1.29502L13.785 5.97402C13.9372 6.28198 14.1618 6.54842 14.4396 6.75047C14.7174 6.95251 15.0401 7.08413 15.38 7.13402L20.546 7.89002C20.6439 7.9042 20.7358 7.94549 20.8115 8.00921C20.8871 8.07294 20.9434 8.15656 20.974 8.25062C21.0046 8.34468 21.0083 8.44542 20.9846 8.54145C20.9609 8.63748 20.9108 8.72497 20.84 8.79402L17.104 12.432C16.8576 12.6721 16.6733 12.9685 16.5668 13.2956C16.4604 13.6228 16.4351 13.9709 16.493 14.31L17.375 19.45C17.3923 19.5479 17.3817 19.6486 17.3445 19.7407C17.3073 19.8328 17.2449 19.9126 17.1645 19.971C17.0842 20.0294 16.989 20.064 16.8899 20.0709C16.7908 20.0778 16.6917 20.0567 16.604 20.01L11.986 17.582C11.6817 17.4222 11.3432 17.3388 10.9995 17.3388C10.6558 17.3388 10.3173 17.4222 10.013 17.582L5.396 20.01C5.30833 20.0564 5.2094 20.0773 5.11045 20.0703C5.0115 20.0632 4.91652 20.0286 4.83629 19.9702C4.75607 19.9119 4.69383 19.8322 4.65666 19.7402C4.61948 19.6483 4.60886 19.5477 4.626 19.45L5.507 14.311C5.5652 13.9717 5.53998 13.6234 5.43354 13.2961C5.32709 12.9687 5.14261 12.6722 4.896 12.432L1.16 8.79502C1.08859 8.72605 1.03799 8.63841 1.01396 8.54209C0.989931 8.44577 0.993436 8.34463 1.02408 8.25021C1.05472 8.15578 1.11127 8.07186 1.18728 8.008C1.26329 7.94414 1.3557 7.90291 1.454 7.88902L6.619 7.13402C6.95926 7.08451 7.28239 6.95307 7.56058 6.751C7.83878 6.54893 8.0637 6.28229 8.216 5.97402L10.525 1.29502Z" stroke="#246BFD" stroke-width="2" stroke-linecap="round" stroke-linejoin="round"/>
</svg>
